<?xml version="1.0" encoding="utf-8"?>
<!-- Generator: Adobe Illustrator 22.0.0, SVG Export Plug-In . SVG Version: 6.00 Build 0)  -->
<svg version="1.1" xmlns="http://www.w3.org/2000/svg" xmlns:xlink="http://www.w3.org/1999/xlink" x="0px" y="0px"
	 viewBox="0 0 256 256" style="enable-background:new 0 0 256 256;" xml:space="preserve">
<style type="text/css">
	.st0{display:none;}
	.st1{display:inline;}
	.st2{fill:none;stroke:#6B1D1D;stroke-width:0.5;stroke-miterlimit:10;}
	.st3{fill:#3A312A;}
	.st4{fill:#87796F;}
	.st5{fill:#D5DE58;}
	.st6{fill:#695B51;}
	.st7{fill:#FCE8CB;}
	.st8{fill:#F16C7A;}
	.st9{fill:#8AC6DD;}
	.st10{fill:#DECAAD;}
	.st11{fill:#D6DF58;}
	.st12{fill-rule:evenodd;clip-rule:evenodd;fill:#FCE8CB;}
	.st13{fill:#F5978A;}
	.st14{fill:#D7E057;}
	.st15{fill-rule:evenodd;clip-rule:evenodd;fill:#87796F;}
	.st16{fill:#6CA8BF;}
	.st17{fill:#B9C239;}
	.st18{fill:#D34E5C;}
	.st19{fill:#FAE6CA;}
	.st20{fill:#F8E4C8;}
	.st21{fill:#8AC5DC;}
	.st22{fill:#EF6D7A;}
	.st23{fill:#EB6E7A;}
	.st24{fill:#89C4DB;}
	.st25{fill-rule:evenodd;clip-rule:evenodd;fill:#F16C7A;}
	.st26{fill:#F7E3C7;}
	.st27{fill:#F6E2C6;}
	.st28{fill:#ED6E7A;}
	.st29{fill:#8AC3DA;}
	.st30{fill:#D5DC57;}
	.st31{fill-rule:evenodd;clip-rule:evenodd;fill:#D7E057;}
	.st32{fill-rule:evenodd;clip-rule:evenodd;fill:#F8E4C8;}
	.st33{fill:#D4DB56;}
	.st34{fill:#F59689;}
	.st35{fill:#DDC9AC;}
	.st36{fill:#D24E5C;}
	.st37{fill:#6A5C52;}
	.st38{fill:#6CA6BE;}
	.st39{fill:#B8C136;}
	.st40{fill-rule:evenodd;clip-rule:evenodd;fill:#FAE6CA;}
</style>
<g id="Layer_2" class="st0">
	<g class="st1">
		<g>
			<line class="st2" x1="0" y1="4.829" x2="256" y2="4.829"/>
			<line class="st2" x1="0" y1="16.56" x2="256" y2="16.56"/>
			<line class="st2" x1="0" y1="28.29" x2="256" y2="28.29"/>
			<line class="st2" x1="0" y1="40.021" x2="256" y2="40.021"/>
			<line class="st2" x1="0" y1="51.751" x2="256" y2="51.751"/>
			<line class="st2" x1="0" y1="63.482" x2="256" y2="63.482"/>
			<line class="st2" x1="0" y1="75.213" x2="256" y2="75.213"/>
			<line class="st2" x1="0" y1="86.943" x2="256" y2="86.943"/>
			<line class="st2" x1="0" y1="98.674" x2="256" y2="98.674"/>
			<line class="st2" x1="0" y1="110.404" x2="256" y2="110.404"/>
			<line class="st2" x1="0" y1="122.135" x2="256" y2="122.135"/>
			<line class="st2" x1="0" y1="133.865" x2="256" y2="133.865"/>
			<line class="st2" x1="0" y1="145.596" x2="256" y2="145.596"/>
			<line class="st2" x1="0" y1="157.326" x2="256" y2="157.326"/>
			<line class="st2" x1="0" y1="169.057" x2="256" y2="169.057"/>
			<line class="st2" x1="0" y1="180.788" x2="256" y2="180.788"/>
			<line class="st2" x1="0" y1="192.518" x2="256" y2="192.518"/>
			<line class="st2" x1="0" y1="204.249" x2="256" y2="204.249"/>
			<line class="st2" x1="0" y1="215.979" x2="256" y2="215.979"/>
			<line class="st2" x1="0" y1="227.71" x2="256" y2="227.71"/>
			<line class="st2" x1="0" y1="239.44" x2="256" y2="239.44"/>
			<line class="st2" x1="0" y1="251.171" x2="256" y2="251.171"/>
		</g>
		<g>
			<line class="st2" x1="251.171" y1="0" x2="251.171" y2="256"/>
			<line class="st2" x1="239.44" y1="0" x2="239.44" y2="256"/>
			<line class="st2" x1="227.71" y1="0" x2="227.71" y2="256"/>
			<line class="st2" x1="215.979" y1="0" x2="215.979" y2="256"/>
			<line class="st2" x1="204.249" y1="0" x2="204.249" y2="256"/>
			<line class="st2" x1="192.518" y1="0" x2="192.518" y2="256"/>
			<line class="st2" x1="180.788" y1="0" x2="180.788" y2="256"/>
			<line class="st2" x1="169.057" y1="0" x2="169.057" y2="256"/>
			<line class="st2" x1="157.326" y1="0" x2="157.326" y2="256"/>
			<line class="st2" x1="145.596" y1="0" x2="145.596" y2="256"/>
			<line class="st2" x1="133.865" y1="0" x2="133.865" y2="256"/>
			<line class="st2" x1="122.135" y1="0" x2="122.135" y2="256"/>
			<line class="st2" x1="110.404" y1="0" x2="110.404" y2="256"/>
			<line class="st2" x1="98.674" y1="0" x2="98.674" y2="256"/>
			<line class="st2" x1="86.943" y1="0" x2="86.943" y2="256"/>
			<line class="st2" x1="75.213" y1="0" x2="75.213" y2="256"/>
			<line class="st2" x1="63.482" y1="0" x2="63.482" y2="256"/>
			<line class="st2" x1="51.751" y1="0" x2="51.751" y2="256"/>
			<line class="st2" x1="40.021" y1="0" x2="40.021" y2="256"/>
			<line class="st2" x1="28.29" y1="0" x2="28.29" y2="256"/>
			<line class="st2" x1="16.56" y1="0" x2="16.56" y2="256"/>
			<line class="st2" x1="4.829" y1="0" x2="4.829" y2="256"/>
		</g>
	</g>
</g>
<g id="Layer_1">
	<g>
		<path class="st4" d="M16.5,143.245v58.774c0,9.447,7.658,17.105,17.105,17.105h188.789c9.447,0,17.105-7.658,17.105-17.105V71.73
			c0-9.447-7.658-17.105-17.105-17.105H33.605c-9.447,0-17.105,7.658-17.105,17.105v57.441V143.245z"/>
		<path class="st3" d="M222.395,220.625H33.605C23.346,220.625,15,212.279,15,202.02v-58.774c0-0.829,0.671-1.5,1.5-1.5
			s1.5,0.671,1.5,1.5v58.774c0,8.605,7,15.605,15.605,15.605h188.789c8.605,0,15.605-7.001,15.605-15.605V71.73
			c0-8.605-7.001-15.605-15.605-15.605H33.605C25,56.125,18,63.125,18,71.73v57.441c0,0.829-0.671,1.5-1.5,1.5S15,130,15,129.171
			V71.73c0-10.259,8.346-18.605,18.605-18.605h188.789c10.259,0,18.605,8.346,18.605,18.605V202.02
			C241,212.279,232.654,220.625,222.395,220.625z"/>
		<path class="st4" d="M247.75,219.12c0,11.19-9.07,20.26-20.25,20.26h-199c-5.59,0-10.65-2.27-14.32-5.93
			c-3.66-3.67-5.93-8.73-5.93-14.33H247.75z"/>
		<path class="st3" d="M227.5,240.88h-199c-5.8,0-11.261-2.261-15.379-6.368c-4.109-4.121-6.371-9.586-6.371-15.392
			c0-0.829,0.671-1.5,1.5-1.5h239.5c0.829,0,1.5,0.671,1.5,1.5C249.25,231.119,239.493,240.88,227.5,240.88z M9.809,220.62
			c0.35,4.442,2.248,8.576,5.434,11.771c3.548,3.539,8.258,5.489,13.258,5.489h199c9.834,0,17.924-7.615,18.69-17.26H9.809z"/>
		<path class="st14" d="M86.201,67.125h-45.17c-6.583,0-11.92,5.337-11.92,11.92v115.66c0,6.583,5.337,11.92,11.92,11.92h173.938
			c6.583,0,11.92-5.337,11.92-11.92V79.045c0-6.583-5.337-11.92-11.92-11.92H99.799H86.201z"/>
		<path class="st3" d="M214.969,208.125H41.031c-7.4,0-13.42-6.02-13.42-13.42V79.045c0-7.4,6.02-13.42,13.42-13.42h173.938
			c7.4,0,13.42,6.02,13.42,13.42v115.66C228.389,202.105,222.369,208.125,214.969,208.125z M41.031,68.625
			c-5.746,0-10.42,4.674-10.42,10.42v115.66c0,5.746,4.674,10.42,10.42,10.42h173.938c5.746,0,10.42-4.674,10.42-10.42V79.045
			c0-5.746-4.674-10.42-10.42-10.42H41.031z"/>
		<path class="st4" d="M145.5,219.12v6.446c0,2.173-1.761,3.934-3.934,3.934h-25.133c-2.173,0-3.934-1.761-3.934-3.934v-6.446H145.5
			z"/>
		<path class="st3" d="M141.566,231h-25.133c-2.996,0-5.434-2.438-5.434-5.434v-6.446c0-0.829,0.671-1.5,1.5-1.5h33
			c0.829,0,1.5,0.671,1.5,1.5v6.446C147,228.562,144.562,231,141.566,231z M114,220.62v4.946c0,1.342,1.092,2.434,2.434,2.434
			h25.133c1.342,0,2.434-1.092,2.434-2.434v-4.946H114z"/>
		<path class="st19" d="M153.907,122h30.763c5.727,0,10.369-4.642,10.369-10.369V27.369c0-5.726-4.642-10.369-10.369-10.369H71.33
			c-5.727,0-10.369,4.642-10.369,10.369v84.262c0,5.727,4.642,10.369,10.369,10.369h69.763H153.907z"/>
		<path class="st3" d="M184.669,123.5h-30.762c-0.829,0-1.5-0.671-1.5-1.5s0.671-1.5,1.5-1.5h30.762
			c4.891,0,8.869-3.979,8.869-8.869V27.369c0-4.89-3.979-8.869-8.869-8.869H71.331c-4.891,0-8.869,3.979-8.869,8.869v84.262
			c0,4.891,3.979,8.869,8.869,8.869h69.762c0.829,0,1.5,0.671,1.5,1.5s-0.671,1.5-1.5,1.5H71.331
			c-6.544,0-11.869-5.325-11.869-11.869V27.369c0-6.545,5.325-11.869,11.869-11.869h113.339c6.544,0,11.869,5.324,11.869,11.869
			v84.262C196.539,118.175,191.214,123.5,184.669,123.5z"/>
		<path class="st22" d="M195.038,40V27.369c0-5.727-4.642-10.369-10.369-10.369H71.33c-5.727,0-10.369,4.642-10.369,10.369V40
			H195.038z"/>
		<path class="st3" d="M195.039,41.5H60.961c-0.829,0-1.5-0.671-1.5-1.5V27.369c0-6.544,5.325-11.869,11.869-11.869h113.339
			c6.544,0,11.869,5.325,11.869,11.869V40C196.539,40.829,195.867,41.5,195.039,41.5z M62.461,38.5h131.077V27.369
			c0-4.891-3.979-8.869-8.869-8.869H71.331c-4.891,0-8.869,3.979-8.869,8.869V38.5z"/>
		<path class="st4" d="M109.546,93.007l-23.782-9.866v-6.209l23.782-9.883v7.429l-14.453,5.571l14.453,5.572V93.007z"/>
		<path class="st3" d="M109.545,94.507c-0.195,0-0.39-0.038-0.575-0.114l-23.782-9.866c-0.56-0.232-0.925-0.779-0.925-1.386v-6.208
			c0-0.606,0.365-1.152,0.924-1.385l23.782-9.883c0.462-0.191,0.992-0.141,1.408,0.138c0.417,0.278,0.667,0.746,0.667,1.247v7.429
			c0,0.62-0.382,1.177-0.96,1.399l-10.822,4.171l10.822,4.173c0.579,0.223,0.96,0.779,0.96,1.399v7.385
			c0,0.501-0.25,0.969-0.667,1.248C110.128,94.421,109.838,94.507,109.545,94.507z M87.264,82.14l20.782,8.621v-4.11l-13.493-5.203
			c-0.579-0.223-0.96-0.779-0.96-1.399c0-0.62,0.382-1.177,0.96-1.399l13.493-5.2v-4.152l-20.782,8.637V82.14z"/>
		<path class="st4" d="M130.538,64.5H138l-10.221,31.393h-7.387L130.538,64.5z"/>
		<path class="st3" d="M127.779,97.393h-7.387c-0.48,0-0.931-0.229-1.213-0.617c-0.282-0.388-0.362-0.888-0.214-1.344l10.146-31.393
			c0.2-0.619,0.776-1.039,1.427-1.039H138c0.48,0,0.932,0.23,1.214,0.619c0.282,0.389,0.361,0.889,0.212,1.346l-10.221,31.393
			C129.004,96.975,128.429,97.393,127.779,97.393z M122.454,94.393h4.236L135.934,66h-4.304L122.454,94.393z"/>
		<path class="st4" d="M147.099,85.621l14.453-5.572l-14.453-5.571v-7.429l23.782,9.883v6.209l-23.782,9.866V85.621z"/>
		<path class="st3" d="M147.099,94.507c-0.293,0-0.583-0.085-0.833-0.252c-0.417-0.278-0.667-0.747-0.667-1.248v-7.385
			c0-0.62,0.382-1.176,0.96-1.399l10.822-4.173l-10.822-4.171c-0.579-0.223-0.96-0.779-0.96-1.399v-7.429
			c0-0.501,0.25-0.969,0.667-1.247c0.417-0.279,0.946-0.329,1.408-0.138l23.782,9.883c0.56,0.233,0.924,0.779,0.924,1.385v6.208
			c0,0.606-0.365,1.153-0.925,1.386l-23.782,9.866C147.489,94.469,147.294,94.507,147.099,94.507z M148.599,86.651v4.11
			l20.782-8.621v-4.206l-20.782-8.637v4.152l13.493,5.2c0.579,0.223,0.96,0.779,0.96,1.399c0,0.62-0.382,1.176-0.96,1.399
			L148.599,86.651z"/>
		<circle class="st4" cx="75.2" cy="28" r="4.2"/>
		<path class="st3" d="M75.2,33.7c-3.143,0-5.7-2.557-5.7-5.7s2.557-5.7,5.7-5.7c3.143,0,5.7,2.557,5.7,5.7S78.343,33.7,75.2,33.7z
			 M75.2,25.3c-1.489,0-2.7,1.211-2.7,2.7s1.211,2.7,2.7,2.7s2.7-1.211,2.7-2.7S76.689,25.3,75.2,25.3z"/>
		<circle class="st14" cx="92" cy="28" r="4.2"/>
		<path class="st3" d="M92,33.7c-3.143,0-5.7-2.557-5.7-5.7s2.557-5.7,5.7-5.7s5.7,2.557,5.7,5.7S95.143,33.7,92,33.7z M92,25.3
			c-1.489,0-2.7,1.211-2.7,2.7s1.211,2.7,2.7,2.7s2.7-1.211,2.7-2.7S93.489,25.3,92,25.3z"/>
		<circle class="st9" cx="108.8" cy="28" r="4.2"/>
		<path class="st3" d="M108.8,33.7c-3.143,0-5.7-2.557-5.7-5.7s2.557-5.7,5.7-5.7c3.143,0,5.7,2.557,5.7,5.7
			S111.943,33.7,108.8,33.7z M108.8,25.3c-1.489,0-2.7,1.211-2.7,2.7s1.211,2.7,2.7,2.7c1.489,0,2.7-1.211,2.7-2.7
			S110.289,25.3,108.8,25.3z"/>
		<path class="st3" d="M204,138.086H52c-0.829,0-1.5-0.671-1.5-1.5s0.671-1.5,1.5-1.5h152c0.829,0,1.5,0.671,1.5,1.5
			S204.829,138.086,204,138.086z"/>
		<path class="st3" d="M204,155.452H52c-0.829,0-1.5-0.671-1.5-1.5c0-0.829,0.671-1.5,1.5-1.5h152c0.829,0,1.5,0.671,1.5,1.5
			C205.5,154.78,204.829,155.452,204,155.452z"/>
		<path class="st3" d="M204,172.817H52c-0.829,0-1.5-0.671-1.5-1.5s0.671-1.5,1.5-1.5h152c0.829,0,1.5,0.671,1.5,1.5
			S204.829,172.817,204,172.817z"/>
		<path class="st3" d="M204,190.183H52c-0.829,0-1.5-0.671-1.5-1.5s0.671-1.5,1.5-1.5h152c0.829,0,1.5,0.671,1.5,1.5
			S204.829,190.183,204,190.183z"/>
		<path class="st17" d="M214.97,68.62h-15c5.74,0,10.42,4.68,10.42,10.42v115.67c0,5.74-4.68,10.41-10.42,10.41h15
			c5.74,0,10.42-4.67,10.42-10.41V79.04C225.39,73.3,220.71,68.62,214.97,68.62z"/>
	</g>
</g>
</svg>
